<svg xmlns="http://www.w3.org/2000/svg" width="178" height="32" viewBox="0 0 178 32">
    <g fill="none" fill-rule="evenodd">
        <path fill="#333332" d="M76.417 26L79 7h-5.536l-3.55 7.217c-.277.577-.568 1.2-.873 1.867a66.668 66.668 0 0 0-.896 2.068 41.482 41.482 0 0 0-.815 2.13h-.113a60.74 60.74 0 0 0-.138-3.159l-.202-2.905L66.28 7H60.8L56 26h3.748l1.902-7.837c.162-.692.331-1.452.508-2.28.176-.825.356-1.677.538-2.554.183-.877.364-1.737.545-2.58h.057c.038.85.079 1.697.123 2.542.044.846.091 1.666.141 2.462.051.795.105 1.542.162 2.24l.682 7.697h3.18l3.918-7.777a96.1 96.1 0 0 0 1.087-2.24c.374-.793.746-1.606 1.12-2.44.373-.833.735-1.662 1.087-2.484h.086c-.27 1.377-.512 2.698-.725 3.963a194.066 194.066 0 0 0-.553 3.455L72.442 26h3.975zM83.145 26l.979-5.096c.129-.678.306-1.316.535-1.915.229-.598.519-1.127.869-1.588.351-.46.775-.821 1.27-1.083.495-.263 1.072-.396 1.734-.402.115 0 .23 0 .342.004.112.003.218.011.32.025L90 12.028a4.473 4.473 0 0 0-.389-.024c-.13-.004-.258-.004-.389-.004a4.262 4.262 0 0 0-1.805.401 5.187 5.187 0 0 0-1.516 1.09 7.122 7.122 0 0 0-1.172 1.614h-.087l.13-1.408.13-1.39h-3.599c-.047.4-.1.9-.16 1.5s-.136 1.25-.226 1.948c-.09.7-.2 1.397-.335 2.097L79 26h4.145z"/>
        <path fill="#F04240" d="M89 24.688c.295.223.694.433 1.195.632.502.198 1.099.36 1.79.486.692.125 1.47.19 2.336.194 1.04 0 2.013-.13 2.922-.393a7.334 7.334 0 0 0 2.402-1.172 5.493 5.493 0 0 0 1.626-1.941c.392-.775.592-1.674.6-2.7a4.336 4.336 0 0 0-.456-1.972 5.274 5.274 0 0 0-1.276-1.596 10.006 10.006 0 0 0-1.963-1.298 21.281 21.281 0 0 1-1.397-.825c-.404-.263-.72-.536-.95-.819a1.51 1.51 0 0 1-.352-.953c.001-.342.108-.66.318-.953.213-.293.527-.53.944-.71.416-.18.932-.273 1.548-.278.518-.005 1 .038 1.451.127.45.09.848.2 1.195.329.347.13.622.25.826.364L103 7.93a6.383 6.383 0 0 0-.99-.436 8.395 8.395 0 0 0-1.43-.35A12.484 12.484 0 0 0 98.618 7c-1.02.002-1.97.14-2.854.413a7.26 7.26 0 0 0-2.33 1.187 5.553 5.553 0 0 0-1.57 1.883c-.379.737-.57 1.572-.576 2.504.01.798.197 1.498.559 2.101a5.755 5.755 0 0 0 1.418 1.585c.582.454 1.21.856 1.882 1.207.568.288 1.038.566 1.408.832.37.266.647.541.827.825.182.285.272.598.27.941-.007.483-.147.884-.42 1.204-.274.319-.632.559-1.076.718a4.279 4.279 0 0 1-1.45.237 8.845 8.845 0 0 1-2.419-.341 8.322 8.322 0 0 1-1.964-.834L89 24.688zM107.092 32l1.144-5.931h.058c.25.149.601.28 1.056.394.452.113.97.172 1.549.178 1.222-.01 2.328-.268 3.32-.774a7.895 7.895 0 0 0 2.556-2.068 9.637 9.637 0 0 0 1.644-2.983c.383-1.115.577-2.287.581-3.516 0-.721-.092-1.4-.275-2.037a5.109 5.109 0 0 0-.834-1.688 3.892 3.892 0 0 0-1.4-1.15c-.563-.279-1.224-.42-1.982-.425a5.337 5.337 0 0 0-2.452.604c-.781.4-1.463.983-2.046 1.744h-.058l.258-2.033h-3.692a104.54 104.54 0 0 1-.512 3.59 72.62 72.62 0 0 1-.317 1.826L103 32h4.092zm2.29-12.176c.176-.923.44-1.72.791-2.39.35-.673.758-1.191 1.224-1.557.466-.365.958-.55 1.48-.555.446.008.801.123 1.066.346.265.223.455.51.57.856.116.347.171.712.168 1.092a7.626 7.626 0 0 1-.302 2.084 7.555 7.555 0 0 1-.833 1.9 4.845 4.845 0 0 1-1.245 1.386c-.476.348-.99.527-1.545.536a3.054 3.054 0 0 1-1.074-.182 2.439 2.439 0 0 1-.815-.506l.514-3.01zM130.971 22.102a8.875 8.875 0 0 1-1.807.62c-.65.15-1.351.227-2.108.23-.602 0-1.133-.088-1.589-.264a2.54 2.54 0 0 1-1.097-.778c-.141-.201-.25-.43-.32-.687a2.614 2.614 0 0 1-.108-.685c1.875.05 3.487-.066 4.838-.351 1.35-.284 2.389-.768 3.116-1.449.727-.68 1.095-1.59 1.104-2.73-.007-.836-.218-1.553-.63-2.15-.414-.597-.984-1.055-1.712-1.374-.727-.32-1.566-.481-2.516-.484-1.014.006-1.942.164-2.788.475a7.71 7.71 0 0 0-2.263 1.284 8.223 8.223 0 0 0-1.68 1.882 8.739 8.739 0 0 0-1.049 2.266 8.515 8.515 0 0 0-.362 2.44c.001 1.166.228 2.171.682 3.014.453.843 1.128 1.492 2.027 1.947.898.456 2.013.687 3.347.692.52.002 1.077-.03 1.673-.094a13.06 13.06 0 0 0 1.798-.325 9.213 9.213 0 0 0 1.73-.624l-.286-2.855zm-1.83-6.067c0 .599-.399 1.023-1.199 1.275-.8.251-2 .367-3.6.347.095-.432.28-.86.554-1.282a3.446 3.446 0 0 1 1.092-1.055c.455-.282 1.002-.428 1.639-.439.475.006.846.112 1.112.32.265.207.399.486.403.834zM145.97 22.102a8.849 8.849 0 0 1-1.807.62 9.465 9.465 0 0 1-2.108.23c-.602 0-1.132-.088-1.589-.264a2.535 2.535 0 0 1-1.096-.778c-.142-.201-.25-.43-.32-.687a2.57 2.57 0 0 1-.109-.685c1.876.05 3.488-.066 4.838-.351 1.35-.284 2.39-.768 3.117-1.449.727-.68 1.095-1.59 1.104-2.73-.007-.836-.218-1.553-.632-2.15-.412-.597-.982-1.055-1.71-1.374-.727-.32-1.566-.481-2.516-.484-1.014.006-1.943.164-2.788.475a7.71 7.71 0 0 0-2.263 1.284 8.257 8.257 0 0 0-1.682 1.882 8.78 8.78 0 0 0-1.048 2.266 8.556 8.556 0 0 0-.361 2.44c0 1.166.228 2.171.681 3.014.454.843 1.128 1.492 2.027 1.947.898.456 2.013.687 3.348.692.52.002 1.077-.03 1.672-.094a12.994 12.994 0 0 0 1.798-.325 9.213 9.213 0 0 0 1.73-.624l-.286-2.855zm-1.828-6.067c0 .599-.4 1.023-1.2 1.275-.8.251-2 .367-3.6.347a3.9 3.9 0 0 1 .553-1.282 3.45 3.45 0 0 1 1.093-1.055c.455-.282 1.002-.428 1.639-.439.475.006.846.112 1.11.32.265.207.4.486.405.834zM160.896 6l-1.199 6.13a4.837 4.837 0 0 0-.969-.236 6.694 6.694 0 0 0-.945-.07c-1.323.011-2.523.261-3.598.75a8.45 8.45 0 0 0-2.772 2.003 9.064 9.064 0 0 0-1.783 2.888 9.493 9.493 0 0 0-.63 3.404c.01 1.102.208 2.035.598 2.797.388.762.908 1.342 1.56 1.737a4.133 4.133 0 0 0 2.176.597 5.465 5.465 0 0 0 1.633-.247 5.221 5.221 0 0 0 1.564-.8c.499-.368.954-.851 1.367-1.45h.056l-.2 2.192h3.765c.03-.814.104-1.675.22-2.582.117-.909.262-1.805.436-2.688L165 6h-4.104zm-2.514 12.98c-.187.86-.456 1.57-.801 2.134-.347.563-.729.982-1.145 1.257-.416.276-.823.414-1.22.412-.604-.004-1.078-.225-1.419-.662-.34-.438-.516-1.068-.52-1.891.002-.66.105-1.307.31-1.943a6.19 6.19 0 0 1 .865-1.729c.375-.517.816-.93 1.327-1.24a3.291 3.291 0 0 1 1.69-.473c.348.004.666.05.952.142.287.09.512.2.673.33l-.712 3.664zM164.848 12l2.636 12.409c.029.15.04.277.03.378a.587.587 0 0 1-.111.294 6.325 6.325 0 0 1-.92 1.296c-.366.4-.775.762-1.226 1.085a6.678 6.678 0 0 1-1.18.683 9.074 9.074 0 0 1-1.077.41l.87 3.445c.298-.044.68-.154 1.149-.329a9.294 9.294 0 0 0 3.118-1.996c.874-.846 1.725-1.912 2.553-3.197.829-1.284 1.679-2.832 2.554-4.646L178 12h-4.13l-2.419 6.023c-.28.731-.508 1.347-.687 1.848-.176.501-.337.95-.482 1.345h-.054c-.054-.428-.116-.903-.187-1.425l-.248-1.824-.815-5.967h-4.13z"/>
        <g>
            <path fill="#F04240" d="M4.882 30.42c.027-.729.623-1.128 1.848-1.11h12.283c1.07-.22 1.177-.8 1.195-1.422-.184-.93-.907-1.22-1.92-1.167h-6.41c-1.207-.072-1.094-.731-1.11-1.282.152-.946.791-.995 1.442-1.025h7.557c1.146.031 1.55-.48 1.564-1.281-.092-.871-.622-1.366-1.76-1.337H1.357c-1.04-.03-1.342-.554-1.251-1.34.239-.81.935-.952 1.79-.91H18.56c1.235.076 1.861-.356 1.904-1.252-.132-.949-.874-1.285-1.984-1.254H9.431c-1.766.074-1.683-.553-1.762-1.11-.021-1.064.752-1.332 1.87-1.254h7.512c.98-.042 1.332-.523 1.368-1.227-.001-.876-.482-1.294-1.416-1.28h-3.667c-1.228.018-1.384-.58-1.333-1.337.105-.86.809-1.032 1.732-1.06h5.19c1.426.135 1.993-.342 1.98-1.23-.176-.975-.947-1.286-2.084-1.18H8.378c-1.723.044-1.623-.694-1.582-1.512.143-.96 1.023-.928 2.08-.907h5.864c1.02.055 1.585-.298 1.67-1.086.064-1.165-.514-1.44-1.314-1.405l-1.244.071c-1.4.077-1.564-.517-1.564-1.193.115-.852.682-1.319 1.777-1.33h21.023l-.12.02C41.771-.1 47.687 3.44 50.322 9.429c3.514 7.984-.128 17.312-8.127 20.82-2.5 1.095-5.132 1.493-7.21 1.296-1.275-.162-.591-.05.098.016H6.474c-1.269.183-1.562-.385-1.592-1.14m33.089 1.153v-.013h.14c-.047.004-.094.01-.14.013m2.664-4.87a11.933 11.933 0 0 0 7.143-10.647l2.73-1.344-3.556-3.291a10.87 10.87 0 0 0-.181-.436c-2.652-6.029-9.707-8.773-15.748-6.125a11.906 11.906 0 0 0-6.314 6.557l-3.559 3.295 2.729 1.344c.035 1.516.36 3.049 1.01 4.522 2.652 6.028 9.706 8.772 15.746 6.125m-38.263-.868v-.287c0-.569.461-1.03 1.03-1.03h1.537c.569 0 1.031.461 1.031 1.03v.287c0 .57-.462 1.03-1.03 1.03H3.401a1.03 1.03 0 0 1-1.03-1.03m1.137-14.69v-.287a1.03 1.03 0 0 1 1.03-1.031h3.11c.569 0 1.03.462 1.03 1.03v.287a1.03 1.03 0 0 1-1.03 1.031H4.54a1.03 1.03 0 0 1-1.03-1.03m2.354-9.697V1.16c0-.57.461-1.031 1.03-1.031h1.851c.568 0 1.03.461 1.03 1.03v.288a1.03 1.03 0 0 1-1.03 1.03H6.893a1.03 1.03 0 0 1-1.03-1.03"/>
            <path fill="#333332" d="M46.207 11.87l2.837 2.629-4.122 2.028-.71 4.054-8.382 4.301v-10.03l3.921 2.989 8.212-3.78z"/>
            <path fill="#F04240" d="M25.453 11.87l-2.84 2.629 4.123 2.028.711 4.054 8.382 4.301v-10.03l-3.92 2.989-8.214-3.78z"/>
            <path fill="#333332" d="M26.98 12.67c-.624-.6-.702-1.131-.595-1.641.235-.705.666-1.128 1.394-1.117.627.045.89.563.922 1.375-.277-.587-.722-.462-.948-.11-.206.337.045.63.46.828.653.273 1.178.146 1.644-.172.588-.376 1.279-1.037 2.004-1.795.92-.964 1.656-1.477 2.233-1.593 1.068-.162 1.568.173 1.93.627.364-.454.866-.79 1.934-.627.576.116 1.312.629 2.232 1.593.725.758 1.416 1.42 2.005 1.795.465.318.99.445 1.641.172.417-.199.67-.491.463-.828-.227-.352-.67-.477-.947.11.031-.812.292-1.33.921-1.375.727-.011 1.158.412 1.392 1.117.106.51.031 1.042-.592 1.64-.882.813-2.295 1.002-4.368.422-1.573-.555-3.138-1.281-4.68-2.335-1.54 1.054-3.104 1.78-4.679 2.335-2.073.58-3.487.391-4.366-.422"/>
        </g>
    </g>
</svg>
